<svg width="18" height="18" viewBox="0 0 18 18" fill="none" xmlns="http://www.w3.org/2000/svg">
<g id="Frame" clip-path="url(#clip0_2_30)">
<path id="Vector" d="M17.999 8.999C17.999 4.029 13.97 0 8.99998 0C4.02998 0 0.000976562 4.029 0.000976562 8.999C0.000976562 13.491 3.29198 17.214 7.59398 17.889V11.6H5.30898V8.999H7.59398V7.016C7.59398 4.761 8.93798 3.515 10.993 3.515C11.978 3.515 13.008 3.691 13.008 3.691V5.906H11.873C10.755 5.906 10.406 6.6 10.406 7.311V8.999H12.902L12.503 11.6H10.406V17.889C14.708 17.214 17.999 13.491 17.999 8.999Z" fill="black"/>
</g>
<defs>
<clipPath id="clip0_2_30">
<rect width="18" height="18" fill="white"/>
</clipPath>
</defs>
</svg>
