<svg width="137" height="39" viewBox="0 0 137 39" fill="none" xmlns="http://www.w3.org/2000/svg">
<g id="Clip path group">
<mask id="mask0_2_10" style="mask-type:luminance" maskUnits="userSpaceOnUse" x="0" y="0" width="137" height="39">
<g id="a">
<path id="Vector" d="M0 0H136.5V39H0V0Z" fill="white"/>
</g>
</mask>
<g mask="url(#mask0_2_10)">
<g id="Group">
<g id="Mask group">
<mask id="mask1_2_10" style="mask-type:luminance" maskUnits="userSpaceOnUse" x="0" y="0" width="38" height="39">
<g id="Group_2">
<path id="Vector_2" d="M37.6043 0H0V38.9935H37.6043V0Z" fill="white"/>
</g>
</mask>
<g mask="url(#mask1_2_10)">
<g id="Group_3">
<path id="Vector_3" d="M2.36386 1.67676L24.1009 0.0894628C26.7699 -0.138037 27.4574 0.0153628 29.135 1.22436L36.0734 6.06556C37.218 6.89756 37.6004 7.12506 37.6004 8.03246V34.5837C37.6004 36.2477 36.9888 37.2318 34.8541 37.3826L9.61258 38.8945C8.00961 38.9699 7.24742 38.7437 6.40795 37.6842L1.29652 31.1023C0.379789 29.892 0 28.9859 0 27.9251V4.32356C0 2.96376 0.610281 1.82756 2.36386 1.67806V1.67676Z" fill="white"/>
<path id="Vector_4" fill-rule="evenodd" clip-rule="evenodd" d="M24.1009 0.0886999L2.36386 1.6786C0.610281 1.8281 0 2.9643 0 4.3241V27.9256C0 28.9864 0.379789 29.8925 1.29652 31.1028L6.40664 37.6847C7.2448 38.7442 8.0083 38.9717 9.61127 38.8937L34.8541 37.3818C36.9888 37.231 37.6004 36.2469 37.6004 34.5829V8.0317C37.6004 7.1711 37.2573 6.9228 36.2463 6.1909C36.1886 6.14892 36.131 6.10689 36.0734 6.0648L29.135 1.2236C27.4574 0.0145998 26.7686 -0.1388 24.1009 0.0886999ZM10.1836 7.5962C8.12224 7.734 7.65471 7.7652 6.48391 6.8214L3.50715 4.4762C3.20332 4.1733 3.35655 3.795 4.11874 3.7209L25.0163 2.2077C26.7699 2.0556 27.6853 2.6627 28.3715 3.1905L31.9559 5.7632C32.1079 5.8386 32.489 6.2923 32.0319 6.2923L10.4494 7.5793L10.1836 7.5962ZM7.77912 34.3554V11.8134C7.77912 10.8306 8.08426 10.3769 8.99968 10.3002L33.7855 8.8637C34.6263 8.7883 35.0074 9.3187 35.0074 10.3002V32.6901C35.0074 33.6755 34.8541 34.5075 33.4803 34.5829L9.76319 35.9453C8.38809 36.0207 7.77912 35.5683 7.77912 34.3554ZM31.1951 13.0224C31.347 13.7049 31.1951 14.3861 30.5062 14.4628L29.3642 14.689V31.329C28.3715 31.8594 27.4561 32.161 26.6939 32.161C25.4733 32.161 25.1682 31.784 24.2528 30.6491L16.7788 19.0011V30.2721L19.144 30.8012C19.144 30.8012 19.144 32.1623 17.2346 32.1623L11.9738 32.4652C11.8206 32.1623 11.9738 31.4057 12.5081 31.2549L13.8806 30.8779V15.9734L11.9738 15.8213C11.8219 15.1401 12.2017 14.1573 13.2703 14.0819L18.9148 13.7049L26.6939 25.505V15.066L24.7111 14.8398C24.5579 14.0065 25.1682 13.4007 25.9304 13.3266L31.1951 13.0224Z" fill="black"/>
</g>
</g>
</g>
<path id="Vector_5" d="M66.7836 9.12601V30.199H63.3957L53.3522 15.782H53.1767V30.199H49.3618V9.12601H52.7825L62.8037 23.5391H63.0002V9.12731H66.7849L66.7836 9.12601ZM76.8873 30.5058C75.3328 30.5058 73.9852 30.1665 72.8445 29.4866C71.7058 28.8089 70.7881 27.8195 70.2017 26.637C69.581 25.4163 69.2693 23.9902 69.2693 22.3574C69.2693 20.7246 69.5797 19.2946 70.2017 18.0674C70.8238 16.8402 71.7052 15.886 72.8445 15.2074C73.9839 14.5288 75.3328 14.1882 76.8873 14.1882C78.4353 14.1882 79.779 14.5288 80.9183 15.2074C82.0577 15.886 82.9404 16.8402 83.5611 18.0674C84.1898 19.2946 84.5041 20.7246 84.5041 22.3574C84.5041 23.9902 84.1898 25.4163 83.5611 26.637C82.9749 27.82 82.0573 28.8099 80.9183 29.4879C79.779 30.1665 78.4353 30.5058 76.8873 30.5058ZM76.8978 27.5418C77.7543 27.5418 78.4654 27.313 79.0325 26.8528C79.5995 26.3874 80.0239 25.7634 80.3067 24.9808C80.5909 24.1917 80.7324 23.3142 80.7324 22.347C80.7324 21.3798 80.5909 20.5023 80.3067 19.7132C80.0239 18.9241 79.5995 18.2962 79.0325 17.8308C78.4654 17.3576 77.7543 17.121 76.8978 17.121C76.0335 17.121 75.3145 17.3576 74.7422 17.8308C74.1686 18.2975 73.7403 18.9241 73.4561 19.7132C73.1811 20.5023 73.0423 21.3798 73.0423 22.347C73.0423 23.3142 73.1798 24.193 73.4561 24.9808C73.7403 25.7634 74.1686 26.3874 74.7422 26.8528C75.3158 27.313 76.0335 27.5418 76.8978 27.5418ZM94.7243 14.3962V17.2562H85.6041V14.3962H94.7243ZM87.8619 10.608H91.5838V25.454C91.5838 25.9545 91.6598 26.338 91.8117 26.6071C91.9702 26.8736 92.1784 27.0556 92.4338 27.1518C92.6892 27.248 92.976 27.2948 93.2942 27.2948C93.5092 27.2966 93.7239 27.2797 93.9359 27.2441C94.1297 27.2103 94.2817 27.1791 94.393 27.1518L95.0137 30.043C94.735 30.1329 94.4517 30.2084 94.1651 30.2692C93.7984 30.3511 93.3492 30.3992 92.8162 30.4122C91.8837 30.4408 91.0417 30.3004 90.2886 29.991C89.5634 29.6924 88.9433 29.1877 88.5062 28.5402C88.0701 27.8824 87.8567 27.0556 87.8632 26.0611V10.608H87.8619ZM97.007 30.1977V14.3949H100.739V30.1977H97.007ZM98.8836 12.1407C98.2891 12.1407 97.781 11.9457 97.3593 11.5557C97.1586 11.3768 96.9984 11.1576 96.8894 10.9126C96.7803 10.6677 96.7249 10.4026 96.7267 10.1348C96.7267 9.57971 96.9376 9.10651 97.3593 8.71521C97.768 8.32507 98.3153 8.11067 98.8823 8.11851C99.4769 8.11851 99.985 8.31741 100.407 8.71651C100.835 9.10651 101.048 9.57971 101.048 10.1348C101.048 10.6834 100.835 11.1566 100.407 11.5544C99.985 11.9457 99.4769 12.142 98.8836 12.142V12.1407ZM110.657 30.5058C109.103 30.5058 107.755 30.1665 106.614 29.4866C105.475 28.809 104.558 27.8195 103.972 26.637C103.351 25.4163 103.039 23.9902 103.039 22.3574C103.039 20.7246 103.351 19.2946 103.972 18.0674C104.594 16.8402 105.475 15.886 106.614 15.2074C107.755 14.5288 109.103 14.1882 110.657 14.1882C112.205 14.1882 113.549 14.5288 114.688 15.2074C115.829 15.886 116.71 16.8402 117.332 18.0674C117.961 19.2946 118.275 20.7246 118.275 22.3574C118.275 23.9902 117.961 25.4163 117.332 26.637C116.746 27.8202 115.828 28.8102 114.688 29.4879C113.549 30.1665 112.205 30.5058 110.657 30.5058ZM110.668 27.5418C111.524 27.5418 112.235 27.313 112.802 26.8528C113.369 26.3874 113.794 25.7634 114.078 24.9808C114.361 24.1917 114.502 23.3142 114.502 22.347C114.502 21.3798 114.361 20.5023 114.078 19.7132C113.794 18.9241 113.369 18.2962 112.802 17.8308C112.235 17.3576 111.524 17.121 110.668 17.121C109.803 17.121 109.086 17.3576 108.512 17.8308C107.938 18.2975 107.51 18.9241 107.226 19.7132C106.951 20.5023 106.812 21.3798 106.812 22.347C106.812 23.3142 106.95 24.193 107.226 24.9808C107.51 25.7634 107.938 26.3874 108.512 26.8528C109.086 27.313 109.803 27.5418 110.668 27.5418ZM124.295 20.9274V30.1964H120.566V14.3962H124.13V17.0703H124.318C124.67 16.2089 125.282 15.4763 126.069 14.9721C126.877 14.4508 127.876 14.1895 129.065 14.1895C130.156 14.1895 131.109 14.4235 131.925 14.8902C132.751 15.361 133.415 16.067 133.832 16.9169C134.288 17.8009 134.516 18.8747 134.516 20.137V30.199H130.796V20.7025C130.796 19.6456 130.519 18.8201 129.966 18.2234C129.412 17.6202 128.649 17.3173 127.674 17.3173C127.019 17.3173 126.435 17.4616 125.923 17.7502C125.413 18.031 125.012 18.4418 124.721 18.9852C124.438 19.5182 124.295 20.1682 124.295 20.9287V20.9274Z" fill="black"/>
</g>
</g>
</g>
</svg>
